<?xml version="1.0" encoding="utf-8" standalone="no"?>
<!DOCTYPE svg PUBLIC "-//W3C//DTD SVG 1.1//EN"
  "http://www.w3.org/Graphics/SVG/1.1/DTD/svg11.dtd">
<svg xmlns:xlink="http://www.w3.org/1999/xlink" width="720pt" height="792pt" viewBox="0 0 720 792" xmlns="http://www.w3.org/2000/svg" version="1.1">
 <metadata>
  <rdf:RDF xmlns:dc="http://purl.org/dc/elements/1.1/" xmlns:cc="http://creativecommons.org/ns#" xmlns:rdf="http://www.w3.org/1999/02/22-rdf-syntax-ns#">
   <cc:Work>
    <dc:type rdf:resource="http://purl.org/dc/dcmitype/StillImage"/>
    <dc:date>2023-02-24T11:20:19.411212</dc:date>
    <dc:format>image/svg+xml</dc:format>
    <dc:creator>
     <cc:Agent>
      <dc:title>Matplotlib v3.6.3, https://matplotlib.org/</dc:title>
     </cc:Agent>
    </dc:creator>
   </cc:Work>
  </rdf:RDF>
 </metadata>
 <defs>
  <style type="text/css">*{stroke-linejoin: round; stroke-linecap: butt}</style>
 </defs>
 <g id="figure_1">
  <g id="patch_1">
   <path d="M 0 792 
L 720 792 
L 720 0 
L 0 0 
z
"/>
  </g>
  <g id="axes_1">
   <g id="line2d_1">
    <defs>
     <path id="mc77201362c" d="M 0 3.5 
C 0.928211 3.5 1.81853 3.131218 2.474874 2.474874 
C 3.131218 1.81853 3.5 0.928211 3.5 0 
C 3.5 -0.928211 3.131218 -1.81853 2.474874 -2.474874 
C 1.81853 -3.131218 0.928211 -3.5 0 -3.5 
C -0.928211 -3.5 -1.81853 -3.131218 -2.474874 -2.474874 
C -3.131218 -1.81853 -3.5 -0.928211 -3.5 0 
C -3.5 0.928211 -3.131218 1.81853 -2.474874 2.474874 
C -1.81853 3.131218 -0.928211 3.5 0 3.5 
z
" style="stroke: #ffffff; stroke-opacity: 0.4"/>
    </defs>
    <g clip-path="url(#pe69a1cddca)">
     <use xlink:href="#mc77201362c" x="444.0981" y="462.582746" style="fill: #ffffff; fill-opacity: 0.4; stroke: #ffffff; stroke-opacity: 0.4"/>
    </g>
   </g>
   <g id="line2d_2">
    <g clip-path="url(#pe69a1cddca)">
     <use xlink:href="#mc77201362c" x="568.505468" y="462.582746" style="fill: #ffffff; fill-opacity: 0.4; stroke: #ffffff; stroke-opacity: 0.4"/>
    </g>
   </g>
   <g id="line2d_3">
    <g clip-path="url(#pe69a1cddca)">
     <use xlink:href="#mc77201362c" x="506.301784" y="338.175377" style="fill: #ffffff; fill-opacity: 0.4; stroke: #ffffff; stroke-opacity: 0.4"/>
    </g>
   </g>
   <g id="line2d_4">
    <g clip-path="url(#pe69a1cddca)">
     <use xlink:href="#mc77201362c" x="568.505468" y="338.175377" style="fill: #ffffff; fill-opacity: 0.4; stroke: #ffffff; stroke-opacity: 0.4"/>
    </g>
   </g>
   <g id="patch_2">
    <path d="M 444.0981 586.990115 
C 477.091319 586.990115 508.737664 573.88177 532.067394 550.55204 
C 555.397123 527.222311 568.505468 495.575966 568.505468 462.582746 
C 568.505468 429.589526 555.397123 397.943182 532.067394 374.613452 
C 508.737664 351.283723 477.091319 338.175377 444.0981 338.175377 
C 411.10488 338.175377 379.458535 351.283723 356.128805 374.613452 
C 332.799076 397.943182 319.690731 429.589526 319.690731 462.582746 
C 319.690731 495.575966 332.799076 527.222311 356.128805 550.55204 
C 379.458535 573.88177 411.10488 586.990115 444.0981 586.990115 
L 444.0981 586.990115 
z
" clip-path="url(#pe69a1cddca)" style="fill: none; stroke-dasharray: 1.5,2.475; stroke-dashoffset: 0; stroke: #cc0099; stroke-width: 1.5; stroke-linejoin: miter"/>
   </g>
   <g id="patch_3">
    <path d="M 506.301784 400.379062 
C 522.798394 400.379062 538.621566 393.824889 550.286431 382.160024 
C 561.951296 370.49516 568.505468 354.671987 568.505468 338.175377 
C 568.505468 321.678767 561.951296 305.855595 550.286431 294.19073 
C 538.621566 282.525866 522.798394 275.971693 506.301784 275.971693 
C 489.805174 275.971693 473.982002 282.525866 462.317137 294.19073 
C 450.652272 305.855595 444.0981 321.678767 444.0981 338.175377 
C 444.0981 354.671987 450.652272 370.49516 462.317137 382.160024 
C 473.982002 393.824889 489.805174 400.379062 506.301784 400.379062 
L 506.301784 400.379062 
z
" clip-path="url(#pe69a1cddca)" style="fill: none; stroke-dasharray: 1.5,2.475; stroke-dashoffset: 0; stroke: #cc0099; stroke-width: 1.5; stroke-linejoin: miter"/>
   </g>
   <g id="patch_4">
    <path d="M 506.301784 400.379062 
C 522.798394 400.379062 538.621566 393.824889 550.286431 382.160024 
C 561.951296 370.49516 568.505468 354.671987 568.505468 338.175377 
C 568.505468 321.678767 561.951296 305.855595 550.286431 294.19073 
C 538.621566 282.525866 522.798394 275.971693 506.301784 275.971693 
C 489.805174 275.971693 473.982002 282.525866 462.317137 294.19073 
C 450.652272 305.855595 444.0981 321.678767 444.0981 338.175377 
C 444.0981 354.671987 450.652272 370.49516 462.317137 382.160024 
C 473.982002 393.824889 489.805174 400.379062 506.301784 400.379062 
L 506.301784 400.379062 
z
" clip-path="url(#pe69a1cddca)" style="fill: none; stroke: #cc0099; stroke-width: 1.5; stroke-linejoin: miter"/>
   </g>
   <g id="patch_5">
    <path d="M 444.0981 586.990115 
C 477.091319 586.990115 508.737664 573.88177 532.067394 550.55204 
C 555.397123 527.222311 568.505468 495.575966 568.505468 462.582746 
C 568.505468 429.589526 555.397123 397.943182 532.067394 374.613452 
C 508.737664 351.283723 477.091319 338.175377 444.0981 338.175377 
C 411.10488 338.175377 379.458535 351.283723 356.128805 374.613452 
C 332.799076 397.943182 319.690731 429.589526 319.690731 462.582746 
C 319.690731 495.575966 332.799076 527.222311 356.128805 550.55204 
C 379.458535 573.88177 411.10488 586.990115 444.0981 586.990115 
L 444.0981 586.990115 
z
" clip-path="url(#pe69a1cddca)" style="fill: none; stroke: #cc0099; stroke-width: 1.5; stroke-linejoin: miter"/>
   </g>
   <g id="line2d_5">
    <path d="M 444.0981 462.582746 
L 568.505468 462.582746 
" clip-path="url(#pe69a1cddca)" style="fill: none; stroke: #ffcc00; stroke-opacity: 0.6; stroke-width: 5; stroke-linecap: square"/>
   </g>
   <g id="line2d_6">
    <path d="M 506.301784 338.175377 
L 568.505468 338.175377 
" clip-path="url(#pe69a1cddca)" style="fill: none; stroke: #ffcc00; stroke-opacity: 0.6; stroke-width: 5; stroke-linecap: square"/>
   </g>
   <g id="line2d_7">
    <defs>
     <path id="me442eaec7f" d="M 0 7.5 
C 1.989023 7.5 3.896849 6.709753 5.303301 5.303301 
C 6.709753 3.896849 7.5 1.989023 7.5 0 
C 7.5 -1.989023 6.709753 -3.896849 5.303301 -5.303301 
C 3.896849 -6.709753 1.989023 -7.5 0 -7.5 
C -1.989023 -7.5 -3.896849 -6.709753 -5.303301 -5.303301 
C -6.709753 -3.896849 -7.5 -1.989023 -7.5 0 
C -7.5 1.989023 -6.709753 3.896849 -5.303301 5.303301 
C -3.896849 6.709753 -1.989023 7.5 0 7.5 
z
" style="stroke: #ffff00; stroke-opacity: 0.6"/>
    </defs>
    <g clip-path="url(#pe69a1cddca)">
     <use xlink:href="#me442eaec7f" x="444.0981" y="338.175377" style="fill-opacity: 0; stroke: #ffff00; stroke-opacity: 0.6"/>
    </g>
   </g>
   <g id="line2d_8">
    <defs>
     <path id="m27e02fe23d" d="M 0 2 
C 0.530406 2 1.03916 1.789267 1.414214 1.414214 
C 1.789267 1.03916 2 0.530406 2 0 
C 2 -0.530406 1.789267 -1.03916 1.414214 -1.414214 
C 1.03916 -1.789267 0.530406 -2 0 -2 
C -0.530406 -2 -1.03916 -1.789267 -1.414214 -1.414214 
C -1.789267 -1.03916 -2 -0.530406 -2 0 
C -2 0.530406 -1.789267 1.03916 -1.414214 1.414214 
C -1.03916 1.789267 -0.530406 2 0 2 
z
" style="stroke: #000000"/>
    </defs>
    <g clip-path="url(#pe69a1cddca)">
     <use xlink:href="#m27e02fe23d" x="444.0981" y="462.582746" style="stroke: #000000"/>
    </g>
   </g>
   <g id="line2d_9">
    <g clip-path="url(#pe69a1cddca)">
     <use xlink:href="#m27e02fe23d" x="568.505468" y="462.582746" style="stroke: #000000"/>
    </g>
   </g>
   <g id="line2d_10">
    <g clip-path="url(#pe69a1cddca)">
     <use xlink:href="#m27e02fe23d" x="506.301784" y="338.175377" style="stroke: #000000"/>
    </g>
   </g>
   <g id="line2d_11">
    <g clip-path="url(#pe69a1cddca)">
     <use xlink:href="#m27e02fe23d" x="568.505468" y="338.175377" style="stroke: #000000"/>
    </g>
   </g>
   <g id="line2d_12">
    <g clip-path="url(#pe69a1cddca)">
     <use xlink:href="#m27e02fe23d" x="444.0981" y="338.175377" style="stroke: #000000"/>
    </g>
   </g>
   <g id="line2d_13">
    <defs>
     <path id="ma21491b58b" d="M 0 1.25 
C 0.331504 1.25 0.649475 1.118292 0.883883 0.883883 
C 1.118292 0.649475 1.25 0.331504 1.25 0 
C 1.25 -0.331504 1.118292 -0.649475 0.883883 -0.883883 
C 0.649475 -1.118292 0.331504 -1.25 0 -1.25 
C -0.331504 -1.25 -0.649475 -1.118292 -0.883883 -0.883883 
C -1.118292 -0.649475 -1.25 -0.331504 -1.25 0 
C -1.25 0.331504 -1.118292 0.649475 -0.883883 0.883883 
C -0.649475 1.118292 -0.331504 1.25 0 1.25 
z
" style="stroke: #ffffff"/>
    </defs>
    <g clip-path="url(#pe69a1cddca)">
     <use xlink:href="#ma21491b58b" x="444.0981" y="462.582746" style="fill: #ffffff; stroke: #ffffff"/>
    </g>
   </g>
   <g id="line2d_14">
    <g clip-path="url(#pe69a1cddca)">
     <use xlink:href="#ma21491b58b" x="568.505468" y="462.582746" style="fill: #ffffff; stroke: #ffffff"/>
    </g>
   </g>
   <g id="line2d_15">
    <g clip-path="url(#pe69a1cddca)">
     <use xlink:href="#ma21491b58b" x="506.301784" y="338.175377" style="fill: #ffffff; stroke: #ffffff"/>
    </g>
   </g>
   <g id="line2d_16">
    <g clip-path="url(#pe69a1cddca)">
     <use xlink:href="#ma21491b58b" x="568.505468" y="338.175377" style="fill: #ffffff; stroke: #ffffff"/>
    </g>
   </g>
   <g id="line2d_17">
    <g clip-path="url(#pe69a1cddca)">
     <use xlink:href="#ma21491b58b" x="444.0981" y="338.175377" style="fill: #ffffff; stroke: #ffffff"/>
    </g>
   </g>
  </g>
  <g id="axes_2">
   <g id="text_1">
    <!-- $\left[ \ 0, \ 1 \ \right]$ -->
    <g style="fill: #ffffff" transform="translate(332.06 736.067841) scale(0.2 -0.2)">
     <defs>
      <path id="DejaVuSans-5b" d="M 550 4863 
L 1875 4863 
L 1875 4416 
L 1125 4416 
L 1125 -397 
L 1875 -397 
L 1875 -844 
L 550 -844 
L 550 4863 
z
" transform="scale(0.015625)"/>
      <path id="DejaVuSans-30" d="M 2034 4250 
Q 1547 4250 1301 3770 
Q 1056 3291 1056 2328 
Q 1056 1369 1301 889 
Q 1547 409 2034 409 
Q 2525 409 2770 889 
Q 3016 1369 3016 2328 
Q 3016 3291 2770 3770 
Q 2525 4250 2034 4250 
z
M 2034 4750 
Q 2819 4750 3233 4129 
Q 3647 3509 3647 2328 
Q 3647 1150 3233 529 
Q 2819 -91 2034 -91 
Q 1250 -91 836 529 
Q 422 1150 422 2328 
Q 422 3509 836 4129 
Q 1250 4750 2034 4750 
z
" transform="scale(0.015625)"/>
      <path id="DejaVuSans-2c" d="M 750 794 
L 1409 794 
L 1409 256 
L 897 -744 
L 494 -744 
L 750 256 
L 750 794 
z
" transform="scale(0.015625)"/>
      <path id="DejaVuSans-31" d="M 794 531 
L 1825 531 
L 1825 4091 
L 703 3866 
L 703 4441 
L 1819 4666 
L 2450 4666 
L 2450 531 
L 3481 531 
L 3481 0 
L 794 0 
L 794 531 
z
" transform="scale(0.015625)"/>
      <path id="DejaVuSans-5d" d="M 1947 4863 
L 1947 -844 
L 622 -844 
L 622 -397 
L 1369 -397 
L 1369 4416 
L 622 4416 
L 622 4863 
L 1947 4863 
z
" transform="scale(0.015625)"/>
     </defs>
     <use xlink:href="#DejaVuSans-5b" transform="translate(0 0.015625)"/>
     <use xlink:href="#DejaVuSans-30" transform="translate(71.48405 0.015625)"/>
     <use xlink:href="#DejaVuSans-2c" transform="translate(135.107097 0.015625)"/>
     <use xlink:href="#DejaVuSans-31" transform="translate(218.847007 0.015625)"/>
     <use xlink:href="#DejaVuSans-5d" transform="translate(314.940432 0.015625)"/>
    </g>
   </g>
   <g id="text_2">
    <!-- 008 -->
    <g style="fill: #ff0000" transform="translate(33.64 737.171591) scale(0.24 -0.24)">
     <defs>
      <path id="DejaVuSans-38" d="M 2034 2216 
Q 1584 2216 1326 1975 
Q 1069 1734 1069 1313 
Q 1069 891 1326 650 
Q 1584 409 2034 409 
Q 2484 409 2743 651 
Q 3003 894 3003 1313 
Q 3003 1734 2745 1975 
Q 2488 2216 2034 2216 
z
M 1403 2484 
Q 997 2584 770 2862 
Q 544 3141 544 3541 
Q 544 4100 942 4425 
Q 1341 4750 2034 4750 
Q 2731 4750 3128 4425 
Q 3525 4100 3525 3541 
Q 3525 3141 3298 2862 
Q 3072 2584 2669 2484 
Q 3125 2378 3379 2068 
Q 3634 1759 3634 1313 
Q 3634 634 3220 271 
Q 2806 -91 2034 -91 
Q 1263 -91 848 271 
Q 434 634 434 1313 
Q 434 1759 690 2068 
Q 947 2378 1403 2484 
z
M 1172 3481 
Q 1172 3119 1398 2916 
Q 1625 2713 2034 2713 
Q 2441 2713 2670 2916 
Q 2900 3119 2900 3481 
Q 2900 3844 2670 4047 
Q 2441 4250 2034 4250 
Q 1625 4250 1398 4047 
Q 1172 3844 1172 3481 
z
" transform="scale(0.015625)"/>
     </defs>
     <use xlink:href="#DejaVuSans-30"/>
     <use xlink:href="#DejaVuSans-30" x="63.623047"/>
     <use xlink:href="#DejaVuSans-38" x="127.246094"/>
    </g>
   </g>
  </g>
 </g>
 <defs>
  <clipPath id="pe69a1cddca">
   <rect x="33.64" y="12.689091" width="667.64" height="667.64"/>
  </clipPath>
 </defs>
</svg>
