<?xml version="1.0" encoding="utf-8" standalone="no"?>
<!DOCTYPE svg PUBLIC "-//W3C//DTD SVG 1.1//EN"
  "http://www.w3.org/Graphics/SVG/1.1/DTD/svg11.dtd">
<svg xmlns:xlink="http://www.w3.org/1999/xlink" width="720pt" height="792pt" viewBox="0 0 720 792" xmlns="http://www.w3.org/2000/svg" version="1.1">
 <metadata>
  <rdf:RDF xmlns:dc="http://purl.org/dc/elements/1.1/" xmlns:cc="http://creativecommons.org/ns#" xmlns:rdf="http://www.w3.org/1999/02/22-rdf-syntax-ns#">
   <cc:Work>
    <dc:type rdf:resource="http://purl.org/dc/dcmitype/StillImage"/>
    <dc:date>2023-02-24T11:20:49.709123</dc:date>
    <dc:format>image/svg+xml</dc:format>
    <dc:creator>
     <cc:Agent>
      <dc:title>Matplotlib v3.6.3, https://matplotlib.org/</dc:title>
     </cc:Agent>
    </dc:creator>
   </cc:Work>
  </rdf:RDF>
 </metadata>
 <defs>
  <style type="text/css">*{stroke-linejoin: round; stroke-linecap: butt}</style>
 </defs>
 <g id="figure_1">
  <g id="patch_1">
   <path d="M 0 792 
L 720 792 
L 720 0 
L 0 0 
z
"/>
  </g>
  <g id="axes_1">
   <g id="line2d_1">
    <defs>
     <path id="m130cb86a58" d="M 0 3.5 
C 0.928211 3.5 1.81853 3.131218 2.474874 2.474874 
C 3.131218 1.81853 3.5 0.928211 3.5 0 
C 3.5 -0.928211 3.131218 -1.81853 2.474874 -2.474874 
C 1.81853 -3.131218 0.928211 -3.5 0 -3.5 
C -0.928211 -3.5 -1.81853 -3.131218 -2.474874 -2.474874 
C -3.131218 -1.81853 -3.5 -0.928211 -3.5 0 
C -3.5 0.928211 -3.131218 1.81853 -2.474874 2.474874 
C -1.81853 3.131218 -0.928211 3.5 0 3.5 
z
" style="stroke: #ffffff; stroke-opacity: 0.4"/>
    </defs>
    <g clip-path="url(#pafa03f3bd3)">
     <use xlink:href="#m130cb86a58" x="444.0981" y="462.582746" style="fill: #ffffff; fill-opacity: 0.4; stroke: #ffffff; stroke-opacity: 0.4"/>
    </g>
   </g>
   <g id="line2d_2">
    <g clip-path="url(#pafa03f3bd3)">
     <use xlink:href="#m130cb86a58" x="568.505468" y="462.582746" style="fill: #ffffff; fill-opacity: 0.4; stroke: #ffffff; stroke-opacity: 0.4"/>
    </g>
   </g>
   <g id="line2d_3">
    <g clip-path="url(#pafa03f3bd3)">
     <use xlink:href="#m130cb86a58" x="506.301784" y="338.175377" style="fill: #ffffff; fill-opacity: 0.4; stroke: #ffffff; stroke-opacity: 0.4"/>
    </g>
   </g>
   <g id="line2d_4">
    <g clip-path="url(#pafa03f3bd3)">
     <use xlink:href="#m130cb86a58" x="568.505468" y="338.175377" style="fill: #ffffff; fill-opacity: 0.4; stroke: #ffffff; stroke-opacity: 0.4"/>
    </g>
   </g>
   <g id="patch_2">
    <path d="M 444.0981 586.990115 
C 477.091319 586.990115 508.737664 573.88177 532.067394 550.55204 
C 555.397123 527.222311 568.505468 495.575966 568.505468 462.582746 
C 568.505468 429.589526 555.397123 397.943182 532.067394 374.613452 
C 508.737664 351.283723 477.091319 338.175377 444.0981 338.175377 
C 411.10488 338.175377 379.458535 351.283723 356.128805 374.613452 
C 332.799076 397.943182 319.690731 429.589526 319.690731 462.582746 
C 319.690731 495.575966 332.799076 527.222311 356.128805 550.55204 
C 379.458535 573.88177 411.10488 586.990115 444.0981 586.990115 
L 444.0981 586.990115 
z
" clip-path="url(#pafa03f3bd3)" style="fill: none; stroke-dasharray: 1.5,2.475; stroke-dashoffset: 0; stroke: #cc0099; stroke-width: 1.5; stroke-linejoin: miter"/>
   </g>
   <g id="patch_3">
    <path d="M 506.301784 400.379062 
C 522.798394 400.379062 538.621566 393.824889 550.286431 382.160024 
C 561.951296 370.49516 568.505468 354.671987 568.505468 338.175377 
C 568.505468 321.678767 561.951296 305.855595 550.286431 294.19073 
C 538.621566 282.525866 522.798394 275.971693 506.301784 275.971693 
C 489.805174 275.971693 473.982002 282.525866 462.317137 294.19073 
C 450.652272 305.855595 444.0981 321.678767 444.0981 338.175377 
C 444.0981 354.671987 450.652272 370.49516 462.317137 382.160024 
C 473.982002 393.824889 489.805174 400.379062 506.301784 400.379062 
L 506.301784 400.379062 
z
" clip-path="url(#pafa03f3bd3)" style="fill: none; stroke-dasharray: 1.5,2.475; stroke-dashoffset: 0; stroke: #cc0099; stroke-width: 1.5; stroke-linejoin: miter"/>
   </g>
   <g id="patch_4">
    <path d="M 444.0981 601.674413 
C 480.985641 601.674413 516.36733 587.018837 542.45076 560.935407 
C 568.534191 534.851976 583.189766 499.470287 583.189766 462.582746 
C 583.189766 425.695205 568.534191 390.313516 542.45076 364.230085 
C 516.36733 338.146655 480.985641 323.491079 444.0981 323.491079 
C 407.210558 323.491079 371.828869 338.146655 345.745439 364.230085 
C 319.662008 390.313516 305.006433 425.695205 305.006433 462.582746 
C 305.006433 499.470287 319.662008 534.851976 345.745439 560.935407 
C 371.828869 587.018837 407.210558 601.674413 444.0981 601.674413 
L 444.0981 601.674413 
z
" clip-path="url(#pafa03f3bd3)" style="fill: none; stroke-dasharray: 1.5,2.475; stroke-dashoffset: 0; stroke: #cc0099; stroke-width: 1.5; stroke-linejoin: miter"/>
   </g>
   <g id="patch_5">
    <path d="M 506.301784 477.267044 
C 543.189325 477.267044 578.571014 462.611469 604.654445 436.528038 
C 630.737875 410.444608 645.393451 375.062919 645.393451 338.175377 
C 645.393451 301.287836 630.737875 265.906147 604.654445 239.822717 
C 578.571014 213.739286 543.189325 199.083711 506.301784 199.083711 
C 469.414243 199.083711 434.032554 213.739286 407.949123 239.822717 
C 381.865693 265.906147 367.210117 301.287836 367.210117 338.175377 
C 367.210117 375.062919 381.865693 410.444608 407.949123 436.528038 
C 434.032554 462.611469 469.414243 477.267044 506.301784 477.267044 
L 506.301784 477.267044 
z
" clip-path="url(#pafa03f3bd3)" style="fill: none; stroke-dasharray: 1.5,2.475; stroke-dashoffset: 0; stroke: #cc0099; stroke-width: 1.5; stroke-linejoin: miter"/>
   </g>
   <g id="patch_6">
    <path d="M 367.46 624.692424 
C 441.235082 624.692424 511.99846 595.381273 564.165321 543.214412 
C 616.332182 491.047551 645.643333 420.284173 645.643333 346.509091 
C 645.643333 272.734009 616.332182 201.970631 564.165321 149.803769 
C 511.99846 97.636908 441.235082 68.325758 367.46 68.325758 
C 293.684918 68.325758 222.92154 97.636908 170.754679 149.803769 
C 118.587818 201.970631 89.276667 272.734009 89.276667 346.509091 
C 89.276667 420.284173 118.587818 491.047551 170.754679 543.214412 
C 222.92154 595.381273 293.684918 624.692424 367.46 624.692424 
L 367.46 624.692424 
z
" clip-path="url(#pafa03f3bd3)" style="fill: none; stroke-dasharray: 1.5,2.475; stroke-dashoffset: 0; stroke: #cc0099; stroke-width: 1.5; stroke-linejoin: miter"/>
   </g>
   <g id="patch_7">
    <path d="M 506.301784 400.379062 
C 522.798394 400.379062 538.621566 393.824889 550.286431 382.160024 
C 561.951296 370.49516 568.505468 354.671987 568.505468 338.175377 
C 568.505468 321.678767 561.951296 305.855595 550.286431 294.19073 
C 538.621566 282.525866 522.798394 275.971693 506.301784 275.971693 
C 489.805174 275.971693 473.982002 282.525866 462.317137 294.19073 
C 450.652272 305.855595 444.0981 321.678767 444.0981 338.175377 
C 444.0981 354.671987 450.652272 370.49516 462.317137 382.160024 
C 473.982002 393.824889 489.805174 400.379062 506.301784 400.379062 
L 506.301784 400.379062 
z
" clip-path="url(#pafa03f3bd3)" style="fill: none; stroke: #cc0099; stroke-width: 1.5; stroke-linejoin: miter"/>
   </g>
   <g id="line2d_5">
    <path d="M 444.0981 462.582746 
L 568.505468 462.582746 
" clip-path="url(#pafa03f3bd3)" style="fill: none; stroke: #ffcc00; stroke-opacity: 0.6; stroke-width: 5; stroke-linecap: square"/>
   </g>
   <g id="line2d_6">
    <path d="M 506.301784 338.175377 
L 568.505468 338.175377 
" clip-path="url(#pafa03f3bd3)" style="fill: none; stroke: #ffcc00; stroke-opacity: 0.6; stroke-width: 5; stroke-linecap: square"/>
   </g>
   <g id="line2d_7">
    <path d="M 587.866003 680.329091 
L 147.053997 12.689091 
" clip-path="url(#pafa03f3bd3)" style="fill: none; stroke-dasharray: 1.5,2.475; stroke-dashoffset: 0; stroke: #999999; stroke-width: 1.5"/>
   </g>
   <g id="line2d_8">
    <path d="M 33.64 366.546 
L 701.28 326.472182 
" clip-path="url(#pafa03f3bd3)" style="fill: none; stroke-dasharray: 1.5,2.475; stroke-dashoffset: 0; stroke: #999999; stroke-width: 1.5"/>
   </g>
   <g id="line2d_9">
    <defs>
     <path id="m5e4bd105b3" d="M 0 7.5 
C 1.989023 7.5 3.896849 6.709753 5.303301 5.303301 
C 6.709753 3.896849 7.5 1.989023 7.5 0 
C 7.5 -1.989023 6.709753 -3.896849 5.303301 -5.303301 
C 3.896849 -6.709753 1.989023 -7.5 0 -7.5 
C -1.989023 -7.5 -3.896849 -6.709753 -5.303301 -5.303301 
C -6.709753 -3.896849 -7.5 -1.989023 -7.5 0 
C -7.5 1.989023 -6.709753 3.896849 -5.303301 5.303301 
C -3.896849 6.709753 -1.989023 7.5 0 7.5 
z
" style="stroke: #ffff00; stroke-opacity: 0.6"/>
    </defs>
    <g clip-path="url(#pafa03f3bd3)">
     <use xlink:href="#m5e4bd105b3" x="568.393717" y="334.448427" style="fill-opacity: 0; stroke: #ffff00; stroke-opacity: 0.6"/>
    </g>
   </g>
   <g id="line2d_10">
    <path d="M 33.64 366.546 
L 701.28 326.472182 
" clip-path="url(#pafa03f3bd3)" style="fill: none; stroke: #999999; stroke-width: 1.5; stroke-linecap: square"/>
   </g>
   <g id="line2d_11">
    <defs>
     <path id="m3a7095c06a" d="M 0 2 
C 0.530406 2 1.03916 1.789267 1.414214 1.414214 
C 1.789267 1.03916 2 0.530406 2 0 
C 2 -0.530406 1.789267 -1.03916 1.414214 -1.414214 
C 1.03916 -1.789267 0.530406 -2 0 -2 
C -0.530406 -2 -1.03916 -1.789267 -1.414214 -1.414214 
C -1.789267 -1.03916 -2 -0.530406 -2 0 
C -2 0.530406 -1.789267 1.03916 -1.414214 1.414214 
C -1.03916 1.789267 -0.530406 2 0 2 
z
" style="stroke: #000000"/>
    </defs>
    <g clip-path="url(#pafa03f3bd3)">
     <use xlink:href="#m3a7095c06a" x="444.0981" y="462.582746" style="stroke: #000000"/>
    </g>
   </g>
   <g id="line2d_12">
    <g clip-path="url(#pafa03f3bd3)">
     <use xlink:href="#m3a7095c06a" x="568.505468" y="462.582746" style="stroke: #000000"/>
    </g>
   </g>
   <g id="line2d_13">
    <g clip-path="url(#pafa03f3bd3)">
     <use xlink:href="#m3a7095c06a" x="506.301784" y="338.175377" style="stroke: #000000"/>
    </g>
   </g>
   <g id="line2d_14">
    <g clip-path="url(#pafa03f3bd3)">
     <use xlink:href="#m3a7095c06a" x="568.505468" y="338.175377" style="stroke: #000000"/>
    </g>
   </g>
   <g id="line2d_15">
    <g clip-path="url(#pafa03f3bd3)">
     <use xlink:href="#m3a7095c06a" x="444.0981" y="338.175377" style="stroke: #000000"/>
    </g>
   </g>
   <g id="line2d_16">
    <g clip-path="url(#pafa03f3bd3)">
     <use xlink:href="#m3a7095c06a" x="543.623995" y="387.938325" style="stroke: #000000"/>
    </g>
   </g>
   <g id="line2d_17">
    <g clip-path="url(#pafa03f3bd3)">
     <use xlink:href="#m3a7095c06a" x="445.853501" y="323.502157" style="stroke: #000000"/>
    </g>
   </g>
   <g id="line2d_18">
    <g clip-path="url(#pafa03f3bd3)">
     <use xlink:href="#m3a7095c06a" x="554.30933" y="377.730072" style="stroke: #000000"/>
    </g>
   </g>
   <g id="line2d_19">
    <g clip-path="url(#pafa03f3bd3)">
     <use xlink:href="#m3a7095c06a" x="369.453678" y="363.056851" style="stroke: #000000"/>
    </g>
   </g>
   <g id="line2d_20">
    <g clip-path="url(#pafa03f3bd3)">
     <use xlink:href="#m3a7095c06a" x="367.46" y="346.509091" style="stroke: #000000"/>
    </g>
   </g>
   <g id="line2d_21">
    <g clip-path="url(#pafa03f3bd3)">
     <use xlink:href="#m3a7095c06a" x="582.939883" y="454.249033" style="stroke: #000000"/>
    </g>
   </g>
   <g id="line2d_22">
    <g clip-path="url(#pafa03f3bd3)">
     <use xlink:href="#m3a7095c06a" x="375.550899" y="358.763313" style="stroke: #000000"/>
    </g>
   </g>
   <g id="line2d_23">
    <g clip-path="url(#pafa03f3bd3)">
     <use xlink:href="#m3a7095c06a" x="512.6453" y="566.40218" style="stroke: #000000"/>
    </g>
   </g>
   <g id="line2d_24">
    <g clip-path="url(#pafa03f3bd3)">
     <use xlink:href="#m3a7095c06a" x="520.736199" y="578.656401" style="stroke: #000000"/>
    </g>
   </g>
   <g id="line2d_25">
    <g clip-path="url(#pafa03f3bd3)">
     <use xlink:href="#m3a7095c06a" x="645.143568" y="329.841664" style="stroke: #000000"/>
    </g>
   </g>
   <g id="line2d_26">
    <g clip-path="url(#pafa03f3bd3)">
     <use xlink:href="#m3a7095c06a" x="214.183801" y="114.36178" style="stroke: #000000"/>
    </g>
   </g>
   <g id="line2d_27">
    <g clip-path="url(#pafa03f3bd3)">
     <use xlink:href="#m3a7095c06a" x="405.834925" y="344.205709" style="stroke: #000000"/>
    </g>
   </g>
   <g id="line2d_28">
    <g clip-path="url(#pafa03f3bd3)">
     <use xlink:href="#m3a7095c06a" x="467.926859" y="340.478759" style="stroke: #000000"/>
    </g>
   </g>
   <g id="line2d_29">
    <g clip-path="url(#pafa03f3bd3)">
     <use xlink:href="#m3a7095c06a" x="444.209851" y="341.902327" style="stroke: #000000"/>
    </g>
   </g>
   <g id="line2d_30">
    <g clip-path="url(#pafa03f3bd3)">
     <use xlink:href="#m3a7095c06a" x="568.393717" y="334.448427" style="stroke: #000000"/>
    </g>
   </g>
   <g id="line2d_31">
    <defs>
     <path id="m993b21b32f" d="M 0 1.25 
C 0.331504 1.25 0.649475 1.118292 0.883883 0.883883 
C 1.118292 0.649475 1.25 0.331504 1.25 0 
C 1.25 -0.331504 1.118292 -0.649475 0.883883 -0.883883 
C 0.649475 -1.118292 0.331504 -1.25 0 -1.25 
C -0.331504 -1.25 -0.649475 -1.118292 -0.883883 -0.883883 
C -1.118292 -0.649475 -1.25 -0.331504 -1.25 0 
C -1.25 0.331504 -1.118292 0.649475 -0.883883 0.883883 
C -0.649475 1.118292 -0.331504 1.25 0 1.25 
z
" style="stroke: #ffffff"/>
    </defs>
    <g clip-path="url(#pafa03f3bd3)">
     <use xlink:href="#m993b21b32f" x="444.0981" y="462.582746" style="fill: #ffffff; stroke: #ffffff"/>
    </g>
   </g>
   <g id="line2d_32">
    <g clip-path="url(#pafa03f3bd3)">
     <use xlink:href="#m993b21b32f" x="568.505468" y="462.582746" style="fill: #ffffff; stroke: #ffffff"/>
    </g>
   </g>
   <g id="line2d_33">
    <g clip-path="url(#pafa03f3bd3)">
     <use xlink:href="#m993b21b32f" x="506.301784" y="338.175377" style="fill: #ffffff; stroke: #ffffff"/>
    </g>
   </g>
   <g id="line2d_34">
    <g clip-path="url(#pafa03f3bd3)">
     <use xlink:href="#m993b21b32f" x="568.505468" y="338.175377" style="fill: #ffffff; stroke: #ffffff"/>
    </g>
   </g>
   <g id="line2d_35">
    <g clip-path="url(#pafa03f3bd3)">
     <use xlink:href="#m993b21b32f" x="444.0981" y="338.175377" style="fill: #ffffff; stroke: #ffffff"/>
    </g>
   </g>
   <g id="line2d_36">
    <g clip-path="url(#pafa03f3bd3)">
     <use xlink:href="#m993b21b32f" x="543.623995" y="387.938325" style="fill: #ffffff; stroke: #ffffff"/>
    </g>
   </g>
   <g id="line2d_37">
    <g clip-path="url(#pafa03f3bd3)">
     <use xlink:href="#m993b21b32f" x="445.853501" y="323.502157" style="fill: #ffffff; stroke: #ffffff"/>
    </g>
   </g>
   <g id="line2d_38">
    <g clip-path="url(#pafa03f3bd3)">
     <use xlink:href="#m993b21b32f" x="554.30933" y="377.730072" style="fill: #ffffff; stroke: #ffffff"/>
    </g>
   </g>
   <g id="line2d_39">
    <g clip-path="url(#pafa03f3bd3)">
     <use xlink:href="#m993b21b32f" x="369.453678" y="363.056851" style="fill: #ffffff; stroke: #ffffff"/>
    </g>
   </g>
   <g id="line2d_40">
    <g clip-path="url(#pafa03f3bd3)">
     <use xlink:href="#m993b21b32f" x="367.46" y="346.509091" style="fill: #ffffff; stroke: #ffffff"/>
    </g>
   </g>
   <g id="line2d_41">
    <g clip-path="url(#pafa03f3bd3)">
     <use xlink:href="#m993b21b32f" x="582.939883" y="454.249033" style="fill: #ffffff; stroke: #ffffff"/>
    </g>
   </g>
   <g id="line2d_42">
    <g clip-path="url(#pafa03f3bd3)">
     <use xlink:href="#m993b21b32f" x="375.550899" y="358.763313" style="fill: #ffffff; stroke: #ffffff"/>
    </g>
   </g>
   <g id="line2d_43">
    <g clip-path="url(#pafa03f3bd3)">
     <use xlink:href="#m993b21b32f" x="512.6453" y="566.40218" style="fill: #ffffff; stroke: #ffffff"/>
    </g>
   </g>
   <g id="line2d_44">
    <g clip-path="url(#pafa03f3bd3)">
     <use xlink:href="#m993b21b32f" x="520.736199" y="578.656401" style="fill: #ffffff; stroke: #ffffff"/>
    </g>
   </g>
   <g id="line2d_45">
    <g clip-path="url(#pafa03f3bd3)">
     <use xlink:href="#m993b21b32f" x="645.143568" y="329.841664" style="fill: #ffffff; stroke: #ffffff"/>
    </g>
   </g>
   <g id="line2d_46">
    <g clip-path="url(#pafa03f3bd3)">
     <use xlink:href="#m993b21b32f" x="214.183801" y="114.36178" style="fill: #ffffff; stroke: #ffffff"/>
    </g>
   </g>
   <g id="line2d_47">
    <g clip-path="url(#pafa03f3bd3)">
     <use xlink:href="#m993b21b32f" x="405.834925" y="344.205709" style="fill: #ffffff; stroke: #ffffff"/>
    </g>
   </g>
   <g id="line2d_48">
    <g clip-path="url(#pafa03f3bd3)">
     <use xlink:href="#m993b21b32f" x="467.926859" y="340.478759" style="fill: #ffffff; stroke: #ffffff"/>
    </g>
   </g>
   <g id="line2d_49">
    <g clip-path="url(#pafa03f3bd3)">
     <use xlink:href="#m993b21b32f" x="444.209851" y="341.902327" style="fill: #ffffff; stroke: #ffffff"/>
    </g>
   </g>
   <g id="line2d_50">
    <g clip-path="url(#pafa03f3bd3)">
     <use xlink:href="#m993b21b32f" x="568.393717" y="334.448427" style="fill: #ffffff; stroke: #ffffff"/>
    </g>
   </g>
  </g>
  <g id="axes_2">
   <g id="text_1">
    <!-- $\left[ \ \frac{\sqrt{5}}{20} + \frac{\sqrt{15}}{10} + \frac{1}{2}, \ - \frac{\sqrt{15}}{20} + \frac{\sqrt{5}}{10} + 1 \ \right]$ -->
    <g style="fill: #ffffff" transform="translate(215.36 738.649091) scale(0.2 -0.2)">
     <defs>
      <path id="STIXSizeTwoSym-Regular-5b" d="M 2701 -1786 
L 1216 -1786 
L 1216 10022 
L 2701 10022 
L 2701 9766 
L 1702 9766 
L 1702 -1530 
L 2701 -1530 
L 2701 -1786 
z
" transform="scale(0.015625)"/>
      <path id="STIXSizeOneSym-Regular-221a" d="M 6970 9933 
L 3373 -1888 
L 3104 -1888 
L 1626 2918 
Q 1555 3149 1465 3251 
Q 1376 3354 1229 3354 
Q 1011 3354 794 3181 
L 717 3309 
L 1766 4115 
L 1926 4115 
L 3379 -602 
L 3405 -602 
L 6605 9933 
L 6970 9933 
z
" transform="scale(0.015625)"/>
      <path id="DejaVuSans-35" d="M 691 4666 
L 3169 4666 
L 3169 4134 
L 1269 4134 
L 1269 2991 
Q 1406 3038 1543 3061 
Q 1681 3084 1819 3084 
Q 2600 3084 3056 2656 
Q 3513 2228 3513 1497 
Q 3513 744 3044 326 
Q 2575 -91 1722 -91 
Q 1428 -91 1123 -41 
Q 819 9 494 109 
L 494 744 
Q 775 591 1075 516 
Q 1375 441 1709 441 
Q 2250 441 2565 725 
Q 2881 1009 2881 1497 
Q 2881 1984 2565 2268 
Q 2250 2553 1709 2553 
Q 1456 2553 1204 2497 
Q 953 2441 691 2322 
L 691 4666 
z
" transform="scale(0.015625)"/>
      <path id="DejaVuSans-32" d="M 1228 531 
L 3431 531 
L 3431 0 
L 469 0 
L 469 531 
Q 828 903 1448 1529 
Q 2069 2156 2228 2338 
Q 2531 2678 2651 2914 
Q 2772 3150 2772 3378 
Q 2772 3750 2511 3984 
Q 2250 4219 1831 4219 
Q 1534 4219 1204 4116 
Q 875 4013 500 3803 
L 500 4441 
Q 881 4594 1212 4672 
Q 1544 4750 1819 4750 
Q 2544 4750 2975 4387 
Q 3406 4025 3406 3419 
Q 3406 3131 3298 2873 
Q 3191 2616 2906 2266 
Q 2828 2175 2409 1742 
Q 1991 1309 1228 531 
z
" transform="scale(0.015625)"/>
      <path id="DejaVuSans-30" d="M 2034 4250 
Q 1547 4250 1301 3770 
Q 1056 3291 1056 2328 
Q 1056 1369 1301 889 
Q 1547 409 2034 409 
Q 2525 409 2770 889 
Q 3016 1369 3016 2328 
Q 3016 3291 2770 3770 
Q 2525 4250 2034 4250 
z
M 2034 4750 
Q 2819 4750 3233 4129 
Q 3647 3509 3647 2328 
Q 3647 1150 3233 529 
Q 2819 -91 2034 -91 
Q 1250 -91 836 529 
Q 422 1150 422 2328 
Q 422 3509 836 4129 
Q 1250 4750 2034 4750 
z
" transform="scale(0.015625)"/>
      <path id="DejaVuSans-2b" d="M 2944 4013 
L 2944 2272 
L 4684 2272 
L 4684 1741 
L 2944 1741 
L 2944 0 
L 2419 0 
L 2419 1741 
L 678 1741 
L 678 2272 
L 2419 2272 
L 2419 4013 
L 2944 4013 
z
" transform="scale(0.015625)"/>
      <path id="DejaVuSans-31" d="M 794 531 
L 1825 531 
L 1825 4091 
L 703 3866 
L 703 4441 
L 1819 4666 
L 2450 4666 
L 2450 531 
L 3481 531 
L 3481 0 
L 794 0 
L 794 531 
z
" transform="scale(0.015625)"/>
      <path id="DejaVuSans-2c" d="M 750 794 
L 1409 794 
L 1409 256 
L 897 -744 
L 494 -744 
L 750 256 
L 750 794 
z
" transform="scale(0.015625)"/>
      <path id="DejaVuSans-2212" d="M 678 2272 
L 4684 2272 
L 4684 1741 
L 678 1741 
L 678 2272 
z
" transform="scale(0.015625)"/>
      <path id="STIXSizeTwoSym-Regular-5d" d="M 1722 -1786 
L 237 -1786 
L 237 -1530 
L 1235 -1530 
L 1235 9766 
L 237 9766 
L 237 10022 
L 1722 10022 
L 1722 -1786 
z
" transform="scale(0.015625)"/>
     </defs>
     <use xlink:href="#STIXSizeTwoSym-Regular-5b" transform="translate(0 -15.8125) scale(0.878565)"/>
     <use xlink:href="#STIXSizeOneSym-Regular-221a" transform="translate(72.805004 55.607812) scale(0.400127)"/>
     <use xlink:href="#DejaVuSans-35" transform="translate(123.821787 45.326562) scale(0.7)"/>
     <use xlink:href="#DejaVuSans-32" transform="translate(80.805004 -39.364062) scale(0.7)"/>
     <use xlink:href="#DejaVuSans-30" transform="translate(125.341136 -39.364062) scale(0.7)"/>
     <use xlink:href="#DejaVuSans-2b" transform="translate(209.090341 0.042187)"/>
     <use xlink:href="#STIXSizeOneSym-Regular-221a" transform="translate(312.361826 55.607812) scale(0.400127)"/>
     <use xlink:href="#DejaVuSans-31" transform="translate(363.378609 45.326562) scale(0.7)"/>
     <use xlink:href="#DejaVuSans-35" transform="translate(407.914742 45.326562) scale(0.7)"/>
     <use xlink:href="#DejaVuSans-31" transform="translate(342.361826 -39.364062) scale(0.7)"/>
     <use xlink:href="#DejaVuSans-30" transform="translate(386.897959 -39.364062) scale(0.7)"/>
     <use xlink:href="#DejaVuSans-2b" transform="translate(493.183297 0.042187)"/>
     <use xlink:href="#DejaVuSans-31" transform="translate(596.454781 43.839063) scale(0.7)"/>
     <use xlink:href="#DejaVuSans-32" transform="translate(596.454781 -39.364062) scale(0.7)"/>
     <use xlink:href="#DejaVuSans-2c" transform="translate(653.490914 0.042187)"/>
     <use xlink:href="#DejaVuSans-2212" transform="translate(756.713245 0.042187)"/>
     <use xlink:href="#STIXSizeOneSym-Regular-221a" transform="translate(859.98473 55.607812) scale(0.400127)"/>
     <use xlink:href="#DejaVuSans-31" transform="translate(911.001513 45.326562) scale(0.7)"/>
     <use xlink:href="#DejaVuSans-35" transform="translate(955.537646 45.326562) scale(0.7)"/>
     <use xlink:href="#DejaVuSans-32" transform="translate(889.98473 -39.364062) scale(0.7)"/>
     <use xlink:href="#DejaVuSans-30" transform="translate(934.520862 -39.364062) scale(0.7)"/>
     <use xlink:href="#DejaVuSans-2b" transform="translate(1040.8062 0.042187)"/>
     <use xlink:href="#STIXSizeOneSym-Regular-221a" transform="translate(1144.077685 55.607812) scale(0.400127)"/>
     <use xlink:href="#DejaVuSans-35" transform="translate(1195.094468 45.326562) scale(0.7)"/>
     <use xlink:href="#DejaVuSans-31" transform="translate(1152.077685 -39.364062) scale(0.7)"/>
     <use xlink:href="#DejaVuSans-30" transform="translate(1196.613817 -39.364062) scale(0.7)"/>
     <use xlink:href="#DejaVuSans-2b" transform="translate(1280.363022 0.042187)"/>
     <use xlink:href="#DejaVuSans-31" transform="translate(1383.634507 0.042187)"/>
     <use xlink:href="#STIXSizeTwoSym-Regular-5d" transform="translate(1479.727932 -15.8125) scale(0.878565)"/>
     <path d="M 115.071787 112.985937 
L 115.071787 117.360937 
L 177.10792 117.360937 
L 177.10792 112.985937 
L 115.071787 112.985937 
z
"/>
     <path d="M 72.805004 18.839062 
L 72.805004 25.089062 
L 177.10792 25.089062 
L 177.10792 18.839062 
L 72.805004 18.839062 
z
"/>
     <path d="M 354.628609 112.985937 
L 354.628609 117.360937 
L 461.200875 117.360937 
L 461.200875 112.985937 
L 354.628609 112.985937 
z
"/>
     <path d="M 312.361826 18.839062 
L 312.361826 25.089062 
L 461.200875 25.089062 
L 461.200875 18.839062 
L 312.361826 18.839062 
z
"/>
     <path d="M 596.454781 18.839063 
L 596.454781 25.089063 
L 640.990914 25.089063 
L 640.990914 18.839063 
L 596.454781 18.839063 
z
"/>
     <path d="M 902.251513 112.985937 
L 902.251513 117.360937 
L 1008.823778 117.360937 
L 1008.823778 112.985937 
L 902.251513 112.985937 
z
"/>
     <path d="M 859.98473 18.839062 
L 859.98473 25.089062 
L 1008.823778 25.089062 
L 1008.823778 18.839062 
L 859.98473 18.839062 
z
"/>
     <path d="M 1186.344468 112.985937 
L 1186.344468 117.360937 
L 1248.380601 117.360937 
L 1248.380601 112.985937 
L 1186.344468 112.985937 
z
"/>
     <path d="M 1144.077685 18.839062 
L 1144.077685 25.089062 
L 1248.380601 25.089062 
L 1248.380601 18.839062 
L 1144.077685 18.839062 
z
"/>
    </g>
   </g>
   <g id="text_2">
    <!-- 028 -->
    <g style="fill: #ff0000" transform="translate(33.64 737.171591) scale(0.24 -0.24)">
     <defs>
      <path id="DejaVuSans-38" d="M 2034 2216 
Q 1584 2216 1326 1975 
Q 1069 1734 1069 1313 
Q 1069 891 1326 650 
Q 1584 409 2034 409 
Q 2484 409 2743 651 
Q 3003 894 3003 1313 
Q 3003 1734 2745 1975 
Q 2488 2216 2034 2216 
z
M 1403 2484 
Q 997 2584 770 2862 
Q 544 3141 544 3541 
Q 544 4100 942 4425 
Q 1341 4750 2034 4750 
Q 2731 4750 3128 4425 
Q 3525 4100 3525 3541 
Q 3525 3141 3298 2862 
Q 3072 2584 2669 2484 
Q 3125 2378 3379 2068 
Q 3634 1759 3634 1313 
Q 3634 634 3220 271 
Q 2806 -91 2034 -91 
Q 1263 -91 848 271 
Q 434 634 434 1313 
Q 434 1759 690 2068 
Q 947 2378 1403 2484 
z
M 1172 3481 
Q 1172 3119 1398 2916 
Q 1625 2713 2034 2713 
Q 2441 2713 2670 2916 
Q 2900 3119 2900 3481 
Q 2900 3844 2670 4047 
Q 2441 4250 2034 4250 
Q 1625 4250 1398 4047 
Q 1172 3844 1172 3481 
z
" transform="scale(0.015625)"/>
     </defs>
     <use xlink:href="#DejaVuSans-30"/>
     <use xlink:href="#DejaVuSans-32" x="63.623047"/>
     <use xlink:href="#DejaVuSans-38" x="127.246094"/>
    </g>
   </g>
  </g>
 </g>
 <defs>
  <clipPath id="pafa03f3bd3">
   <rect x="33.64" y="12.689091" width="667.64" height="667.64"/>
  </clipPath>
 </defs>
</svg>
