<?xml version="1.0" encoding="utf-8" standalone="no"?>
<!DOCTYPE svg PUBLIC "-//W3C//DTD SVG 1.1//EN"
  "http://www.w3.org/Graphics/SVG/1.1/DTD/svg11.dtd">
<svg xmlns:xlink="http://www.w3.org/1999/xlink" width="720pt" height="792pt" viewBox="0 0 720 792" xmlns="http://www.w3.org/2000/svg" version="1.1">
 <metadata>
  <rdf:RDF xmlns:dc="http://purl.org/dc/elements/1.1/" xmlns:cc="http://creativecommons.org/ns#" xmlns:rdf="http://www.w3.org/1999/02/22-rdf-syntax-ns#">
   <cc:Work>
    <dc:type rdf:resource="http://purl.org/dc/dcmitype/StillImage"/>
    <dc:date>2023-02-24T11:20:52.089368</dc:date>
    <dc:format>image/svg+xml</dc:format>
    <dc:creator>
     <cc:Agent>
      <dc:title>Matplotlib v3.6.3, https://matplotlib.org/</dc:title>
     </cc:Agent>
    </dc:creator>
   </cc:Work>
  </rdf:RDF>
 </metadata>
 <defs>
  <style type="text/css">*{stroke-linejoin: round; stroke-linecap: butt}</style>
 </defs>
 <g id="figure_1">
  <g id="patch_1">
   <path d="M 0 792 
L 720 792 
L 720 0 
L 0 0 
z
"/>
  </g>
  <g id="axes_1">
   <g id="line2d_1">
    <defs>
     <path id="m4706cd26ac" d="M 0 3.5 
C 0.928211 3.5 1.81853 3.131218 2.474874 2.474874 
C 3.131218 1.81853 3.5 0.928211 3.5 0 
C 3.5 -0.928211 3.131218 -1.81853 2.474874 -2.474874 
C 1.81853 -3.131218 0.928211 -3.5 0 -3.5 
C -0.928211 -3.5 -1.81853 -3.131218 -2.474874 -2.474874 
C -3.131218 -1.81853 -3.5 -0.928211 -3.5 0 
C -3.5 0.928211 -3.131218 1.81853 -2.474874 2.474874 
C -1.81853 3.131218 -0.928211 3.5 0 3.5 
z
" style="stroke: #ffffff; stroke-opacity: 0.4"/>
    </defs>
    <g clip-path="url(#p88c32bc8bb)">
     <use xlink:href="#m4706cd26ac" x="444.0981" y="462.582746" style="fill: #ffffff; fill-opacity: 0.4; stroke: #ffffff; stroke-opacity: 0.4"/>
    </g>
   </g>
   <g id="line2d_2">
    <g clip-path="url(#p88c32bc8bb)">
     <use xlink:href="#m4706cd26ac" x="568.505468" y="462.582746" style="fill: #ffffff; fill-opacity: 0.4; stroke: #ffffff; stroke-opacity: 0.4"/>
    </g>
   </g>
   <g id="line2d_3">
    <g clip-path="url(#p88c32bc8bb)">
     <use xlink:href="#m4706cd26ac" x="506.301784" y="338.175377" style="fill: #ffffff; fill-opacity: 0.4; stroke: #ffffff; stroke-opacity: 0.4"/>
    </g>
   </g>
   <g id="line2d_4">
    <g clip-path="url(#p88c32bc8bb)">
     <use xlink:href="#m4706cd26ac" x="568.505468" y="338.175377" style="fill: #ffffff; fill-opacity: 0.4; stroke: #ffffff; stroke-opacity: 0.4"/>
    </g>
   </g>
   <g id="patch_2">
    <path d="M 444.0981 586.990115 
C 477.091319 586.990115 508.737664 573.88177 532.067394 550.55204 
C 555.397123 527.222311 568.505468 495.575966 568.505468 462.582746 
C 568.505468 429.589526 555.397123 397.943182 532.067394 374.613452 
C 508.737664 351.283723 477.091319 338.175377 444.0981 338.175377 
C 411.10488 338.175377 379.458535 351.283723 356.128805 374.613452 
C 332.799076 397.943182 319.690731 429.589526 319.690731 462.582746 
C 319.690731 495.575966 332.799076 527.222311 356.128805 550.55204 
C 379.458535 573.88177 411.10488 586.990115 444.0981 586.990115 
L 444.0981 586.990115 
z
" clip-path="url(#p88c32bc8bb)" style="fill: none; stroke-dasharray: 1.5,2.475; stroke-dashoffset: 0; stroke: #cc0099; stroke-width: 1.5; stroke-linejoin: miter"/>
   </g>
   <g id="patch_3">
    <path d="M 506.301784 400.379062 
C 522.798394 400.379062 538.621566 393.824889 550.286431 382.160024 
C 561.951296 370.49516 568.505468 354.671987 568.505468 338.175377 
C 568.505468 321.678767 561.951296 305.855595 550.286431 294.19073 
C 538.621566 282.525866 522.798394 275.971693 506.301784 275.971693 
C 489.805174 275.971693 473.982002 282.525866 462.317137 294.19073 
C 450.652272 305.855595 444.0981 321.678767 444.0981 338.175377 
C 444.0981 354.671987 450.652272 370.49516 462.317137 382.160024 
C 473.982002 393.824889 489.805174 400.379062 506.301784 400.379062 
L 506.301784 400.379062 
z
" clip-path="url(#p88c32bc8bb)" style="fill: none; stroke-dasharray: 1.5,2.475; stroke-dashoffset: 0; stroke: #cc0099; stroke-width: 1.5; stroke-linejoin: miter"/>
   </g>
   <g id="patch_4">
    <path d="M 444.0981 601.674413 
C 480.985641 601.674413 516.36733 587.018837 542.45076 560.935407 
C 568.534191 534.851976 583.189766 499.470287 583.189766 462.582746 
C 583.189766 425.695205 568.534191 390.313516 542.45076 364.230085 
C 516.36733 338.146655 480.985641 323.491079 444.0981 323.491079 
C 407.210558 323.491079 371.828869 338.146655 345.745439 364.230085 
C 319.662008 390.313516 305.006433 425.695205 305.006433 462.582746 
C 305.006433 499.470287 319.662008 534.851976 345.745439 560.935407 
C 371.828869 587.018837 407.210558 601.674413 444.0981 601.674413 
L 444.0981 601.674413 
z
" clip-path="url(#p88c32bc8bb)" style="fill: none; stroke-dasharray: 1.5,2.475; stroke-dashoffset: 0; stroke: #cc0099; stroke-width: 1.5; stroke-linejoin: miter"/>
   </g>
   <g id="patch_5">
    <path d="M 506.301784 477.267044 
C 543.189325 477.267044 578.571014 462.611469 604.654445 436.528038 
C 630.737875 410.444608 645.393451 375.062919 645.393451 338.175377 
C 645.393451 301.287836 630.737875 265.906147 604.654445 239.822717 
C 578.571014 213.739286 543.189325 199.083711 506.301784 199.083711 
C 469.414243 199.083711 434.032554 213.739286 407.949123 239.822717 
C 381.865693 265.906147 367.210117 301.287836 367.210117 338.175377 
C 367.210117 375.062919 381.865693 410.444608 407.949123 436.528038 
C 434.032554 462.611469 469.414243 477.267044 506.301784 477.267044 
L 506.301784 477.267044 
z
" clip-path="url(#p88c32bc8bb)" style="fill: none; stroke-dasharray: 1.5,2.475; stroke-dashoffset: 0; stroke: #cc0099; stroke-width: 1.5; stroke-linejoin: miter"/>
   </g>
   <g id="patch_6">
    <path d="M 367.46 624.692424 
C 441.235082 624.692424 511.99846 595.381273 564.165321 543.214412 
C 616.332182 491.047551 645.643333 420.284173 645.643333 346.509091 
C 645.643333 272.734009 616.332182 201.970631 564.165321 149.803769 
C 511.99846 97.636908 441.235082 68.325758 367.46 68.325758 
C 293.684918 68.325758 222.92154 97.636908 170.754679 149.803769 
C 118.587818 201.970631 89.276667 272.734009 89.276667 346.509091 
C 89.276667 420.284173 118.587818 491.047551 170.754679 543.214412 
C 222.92154 595.381273 293.684918 624.692424 367.46 624.692424 
L 367.46 624.692424 
z
" clip-path="url(#p88c32bc8bb)" style="fill: none; stroke-dasharray: 1.5,2.475; stroke-dashoffset: 0; stroke: #cc0099; stroke-width: 1.5; stroke-linejoin: miter"/>
   </g>
   <g id="line2d_5">
    <path d="M 444.0981 462.582746 
L 568.505468 462.582746 
" clip-path="url(#p88c32bc8bb)" style="fill: none; stroke: #ffcc00; stroke-opacity: 0.6; stroke-width: 5; stroke-linecap: square"/>
   </g>
   <g id="line2d_6">
    <path d="M 506.301784 338.175377 
L 568.505468 338.175377 
" clip-path="url(#p88c32bc8bb)" style="fill: none; stroke: #ffcc00; stroke-opacity: 0.6; stroke-width: 5; stroke-linecap: square"/>
   </g>
   <g id="line2d_7">
    <path d="M 587.866003 680.329091 
L 147.053997 12.689091 
" clip-path="url(#p88c32bc8bb)" style="fill: none; stroke-dasharray: 1.5,2.475; stroke-dashoffset: 0; stroke: #999999; stroke-width: 1.5"/>
   </g>
   <g id="line2d_8">
    <path d="M 33.64 366.546 
L 701.28 326.472182 
" clip-path="url(#p88c32bc8bb)" style="fill: none; stroke-dasharray: 1.5,2.475; stroke-dashoffset: 0; stroke: #999999; stroke-width: 1.5"/>
   </g>
   <g id="line2d_9">
    <defs>
     <path id="m3d30c3af09" d="M 0 2 
C 0.530406 2 1.03916 1.789267 1.414214 1.414214 
C 1.789267 1.03916 2 0.530406 2 0 
C 2 -0.530406 1.789267 -1.03916 1.414214 -1.414214 
C 1.03916 -1.789267 0.530406 -2 0 -2 
C -0.530406 -2 -1.03916 -1.789267 -1.414214 -1.414214 
C -1.789267 -1.03916 -2 -0.530406 -2 0 
C -2 0.530406 -1.789267 1.03916 -1.414214 1.414214 
C -1.03916 1.789267 -0.530406 2 0 2 
z
" style="stroke: #000000"/>
    </defs>
    <g clip-path="url(#p88c32bc8bb)">
     <use xlink:href="#m3d30c3af09" x="444.0981" y="462.582746" style="stroke: #000000"/>
    </g>
   </g>
   <g id="line2d_10">
    <g clip-path="url(#p88c32bc8bb)">
     <use xlink:href="#m3d30c3af09" x="568.505468" y="462.582746" style="stroke: #000000"/>
    </g>
   </g>
   <g id="line2d_11">
    <g clip-path="url(#p88c32bc8bb)">
     <use xlink:href="#m3d30c3af09" x="506.301784" y="338.175377" style="stroke: #000000"/>
    </g>
   </g>
   <g id="line2d_12">
    <g clip-path="url(#p88c32bc8bb)">
     <use xlink:href="#m3d30c3af09" x="568.505468" y="338.175377" style="stroke: #000000"/>
    </g>
   </g>
   <g id="line2d_13">
    <g clip-path="url(#p88c32bc8bb)">
     <use xlink:href="#m3d30c3af09" x="444.0981" y="338.175377" style="stroke: #000000"/>
    </g>
   </g>
   <g id="line2d_14">
    <g clip-path="url(#p88c32bc8bb)">
     <use xlink:href="#m3d30c3af09" x="543.623995" y="387.938325" style="stroke: #000000"/>
    </g>
   </g>
   <g id="line2d_15">
    <g clip-path="url(#p88c32bc8bb)">
     <use xlink:href="#m3d30c3af09" x="445.853501" y="323.502157" style="stroke: #000000"/>
    </g>
   </g>
   <g id="line2d_16">
    <g clip-path="url(#p88c32bc8bb)">
     <use xlink:href="#m3d30c3af09" x="554.30933" y="377.730072" style="stroke: #000000"/>
    </g>
   </g>
   <g id="line2d_17">
    <g clip-path="url(#p88c32bc8bb)">
     <use xlink:href="#m3d30c3af09" x="369.453678" y="363.056851" style="stroke: #000000"/>
    </g>
   </g>
   <g id="line2d_18">
    <g clip-path="url(#p88c32bc8bb)">
     <use xlink:href="#m3d30c3af09" x="367.46" y="346.509091" style="stroke: #000000"/>
    </g>
   </g>
   <g id="line2d_19">
    <g clip-path="url(#p88c32bc8bb)">
     <use xlink:href="#m3d30c3af09" x="582.939883" y="454.249033" style="stroke: #000000"/>
    </g>
   </g>
   <g id="line2d_20">
    <g clip-path="url(#p88c32bc8bb)">
     <use xlink:href="#m3d30c3af09" x="375.550899" y="358.763313" style="stroke: #000000"/>
    </g>
   </g>
   <g id="line2d_21">
    <g clip-path="url(#p88c32bc8bb)">
     <use xlink:href="#m3d30c3af09" x="512.6453" y="566.40218" style="stroke: #000000"/>
    </g>
   </g>
   <g id="line2d_22">
    <g clip-path="url(#p88c32bc8bb)">
     <use xlink:href="#m3d30c3af09" x="520.736199" y="578.656401" style="stroke: #000000"/>
    </g>
   </g>
   <g id="line2d_23">
    <g clip-path="url(#p88c32bc8bb)">
     <use xlink:href="#m3d30c3af09" x="645.143568" y="329.841664" style="stroke: #000000"/>
    </g>
   </g>
   <g id="line2d_24">
    <g clip-path="url(#p88c32bc8bb)">
     <use xlink:href="#m3d30c3af09" x="214.183801" y="114.36178" style="stroke: #000000"/>
    </g>
   </g>
   <g id="line2d_25">
    <g clip-path="url(#p88c32bc8bb)">
     <use xlink:href="#m3d30c3af09" x="405.834925" y="344.205709" style="stroke: #000000"/>
    </g>
   </g>
   <g id="line2d_26">
    <g clip-path="url(#p88c32bc8bb)">
     <use xlink:href="#m3d30c3af09" x="467.926859" y="340.478759" style="stroke: #000000"/>
    </g>
   </g>
   <g id="line2d_27">
    <g clip-path="url(#p88c32bc8bb)">
     <use xlink:href="#m3d30c3af09" x="444.209851" y="341.902327" style="stroke: #000000"/>
    </g>
   </g>
   <g id="line2d_28">
    <g clip-path="url(#p88c32bc8bb)">
     <use xlink:href="#m3d30c3af09" x="568.393717" y="334.448427" style="stroke: #000000"/>
    </g>
   </g>
   <g id="line2d_29">
    <g clip-path="url(#p88c32bc8bb)">
     <use xlink:href="#m3d30c3af09" x="89.776432" y="363.176518" style="stroke: #000000"/>
    </g>
   </g>
   <g id="line2d_30">
    <defs>
     <path id="m60ae7ae672" d="M 0 1.25 
C 0.331504 1.25 0.649475 1.118292 0.883883 0.883883 
C 1.118292 0.649475 1.25 0.331504 1.25 0 
C 1.25 -0.331504 1.118292 -0.649475 0.883883 -0.883883 
C 0.649475 -1.118292 0.331504 -1.25 0 -1.25 
C -0.331504 -1.25 -0.649475 -1.118292 -0.883883 -0.883883 
C -1.118292 -0.649475 -1.25 -0.331504 -1.25 0 
C -1.25 0.331504 -1.118292 0.649475 -0.883883 0.883883 
C -0.649475 1.118292 -0.331504 1.25 0 1.25 
z
" style="stroke: #ffffff"/>
    </defs>
    <g clip-path="url(#p88c32bc8bb)">
     <use xlink:href="#m60ae7ae672" x="444.0981" y="462.582746" style="fill: #ffffff; stroke: #ffffff"/>
    </g>
   </g>
   <g id="line2d_31">
    <g clip-path="url(#p88c32bc8bb)">
     <use xlink:href="#m60ae7ae672" x="568.505468" y="462.582746" style="fill: #ffffff; stroke: #ffffff"/>
    </g>
   </g>
   <g id="line2d_32">
    <g clip-path="url(#p88c32bc8bb)">
     <use xlink:href="#m60ae7ae672" x="506.301784" y="338.175377" style="fill: #ffffff; stroke: #ffffff"/>
    </g>
   </g>
   <g id="line2d_33">
    <g clip-path="url(#p88c32bc8bb)">
     <use xlink:href="#m60ae7ae672" x="568.505468" y="338.175377" style="fill: #ffffff; stroke: #ffffff"/>
    </g>
   </g>
   <g id="line2d_34">
    <g clip-path="url(#p88c32bc8bb)">
     <use xlink:href="#m60ae7ae672" x="444.0981" y="338.175377" style="fill: #ffffff; stroke: #ffffff"/>
    </g>
   </g>
   <g id="line2d_35">
    <g clip-path="url(#p88c32bc8bb)">
     <use xlink:href="#m60ae7ae672" x="543.623995" y="387.938325" style="fill: #ffffff; stroke: #ffffff"/>
    </g>
   </g>
   <g id="line2d_36">
    <g clip-path="url(#p88c32bc8bb)">
     <use xlink:href="#m60ae7ae672" x="445.853501" y="323.502157" style="fill: #ffffff; stroke: #ffffff"/>
    </g>
   </g>
   <g id="line2d_37">
    <g clip-path="url(#p88c32bc8bb)">
     <use xlink:href="#m60ae7ae672" x="554.30933" y="377.730072" style="fill: #ffffff; stroke: #ffffff"/>
    </g>
   </g>
   <g id="line2d_38">
    <g clip-path="url(#p88c32bc8bb)">
     <use xlink:href="#m60ae7ae672" x="369.453678" y="363.056851" style="fill: #ffffff; stroke: #ffffff"/>
    </g>
   </g>
   <g id="line2d_39">
    <g clip-path="url(#p88c32bc8bb)">
     <use xlink:href="#m60ae7ae672" x="367.46" y="346.509091" style="fill: #ffffff; stroke: #ffffff"/>
    </g>
   </g>
   <g id="line2d_40">
    <g clip-path="url(#p88c32bc8bb)">
     <use xlink:href="#m60ae7ae672" x="582.939883" y="454.249033" style="fill: #ffffff; stroke: #ffffff"/>
    </g>
   </g>
   <g id="line2d_41">
    <g clip-path="url(#p88c32bc8bb)">
     <use xlink:href="#m60ae7ae672" x="375.550899" y="358.763313" style="fill: #ffffff; stroke: #ffffff"/>
    </g>
   </g>
   <g id="line2d_42">
    <g clip-path="url(#p88c32bc8bb)">
     <use xlink:href="#m60ae7ae672" x="512.6453" y="566.40218" style="fill: #ffffff; stroke: #ffffff"/>
    </g>
   </g>
   <g id="line2d_43">
    <g clip-path="url(#p88c32bc8bb)">
     <use xlink:href="#m60ae7ae672" x="520.736199" y="578.656401" style="fill: #ffffff; stroke: #ffffff"/>
    </g>
   </g>
   <g id="line2d_44">
    <g clip-path="url(#p88c32bc8bb)">
     <use xlink:href="#m60ae7ae672" x="645.143568" y="329.841664" style="fill: #ffffff; stroke: #ffffff"/>
    </g>
   </g>
   <g id="line2d_45">
    <g clip-path="url(#p88c32bc8bb)">
     <use xlink:href="#m60ae7ae672" x="214.183801" y="114.36178" style="fill: #ffffff; stroke: #ffffff"/>
    </g>
   </g>
   <g id="line2d_46">
    <g clip-path="url(#p88c32bc8bb)">
     <use xlink:href="#m60ae7ae672" x="405.834925" y="344.205709" style="fill: #ffffff; stroke: #ffffff"/>
    </g>
   </g>
   <g id="line2d_47">
    <g clip-path="url(#p88c32bc8bb)">
     <use xlink:href="#m60ae7ae672" x="467.926859" y="340.478759" style="fill: #ffffff; stroke: #ffffff"/>
    </g>
   </g>
   <g id="line2d_48">
    <g clip-path="url(#p88c32bc8bb)">
     <use xlink:href="#m60ae7ae672" x="444.209851" y="341.902327" style="fill: #ffffff; stroke: #ffffff"/>
    </g>
   </g>
   <g id="line2d_49">
    <g clip-path="url(#p88c32bc8bb)">
     <use xlink:href="#m60ae7ae672" x="568.393717" y="334.448427" style="fill: #ffffff; stroke: #ffffff"/>
    </g>
   </g>
   <g id="line2d_50">
    <g clip-path="url(#p88c32bc8bb)">
     <use xlink:href="#m60ae7ae672" x="89.776432" y="363.176518" style="fill: #ffffff; stroke: #ffffff"/>
    </g>
   </g>
  </g>
  <g id="axes_2">
   <g id="text_1">
    <!-- elements: 30 | points: 21 -->
    <g style="fill: #ffffff" transform="translate(242.033437 735.833466) scale(0.2 -0.2)">
     <defs>
      <path id="DejaVuSans-65" d="M 3597 1894 
L 3597 1613 
L 953 1613 
Q 991 1019 1311 708 
Q 1631 397 2203 397 
Q 2534 397 2845 478 
Q 3156 559 3463 722 
L 3463 178 
Q 3153 47 2828 -22 
Q 2503 -91 2169 -91 
Q 1331 -91 842 396 
Q 353 884 353 1716 
Q 353 2575 817 3079 
Q 1281 3584 2069 3584 
Q 2775 3584 3186 3129 
Q 3597 2675 3597 1894 
z
M 3022 2063 
Q 3016 2534 2758 2815 
Q 2500 3097 2075 3097 
Q 1594 3097 1305 2825 
Q 1016 2553 972 2059 
L 3022 2063 
z
" transform="scale(0.015625)"/>
      <path id="DejaVuSans-6c" d="M 603 4863 
L 1178 4863 
L 1178 0 
L 603 0 
L 603 4863 
z
" transform="scale(0.015625)"/>
      <path id="DejaVuSans-6d" d="M 3328 2828 
Q 3544 3216 3844 3400 
Q 4144 3584 4550 3584 
Q 5097 3584 5394 3201 
Q 5691 2819 5691 2113 
L 5691 0 
L 5113 0 
L 5113 2094 
Q 5113 2597 4934 2840 
Q 4756 3084 4391 3084 
Q 3944 3084 3684 2787 
Q 3425 2491 3425 1978 
L 3425 0 
L 2847 0 
L 2847 2094 
Q 2847 2600 2669 2842 
Q 2491 3084 2119 3084 
Q 1678 3084 1418 2786 
Q 1159 2488 1159 1978 
L 1159 0 
L 581 0 
L 581 3500 
L 1159 3500 
L 1159 2956 
Q 1356 3278 1631 3431 
Q 1906 3584 2284 3584 
Q 2666 3584 2933 3390 
Q 3200 3197 3328 2828 
z
" transform="scale(0.015625)"/>
      <path id="DejaVuSans-6e" d="M 3513 2113 
L 3513 0 
L 2938 0 
L 2938 2094 
Q 2938 2591 2744 2837 
Q 2550 3084 2163 3084 
Q 1697 3084 1428 2787 
Q 1159 2491 1159 1978 
L 1159 0 
L 581 0 
L 581 3500 
L 1159 3500 
L 1159 2956 
Q 1366 3272 1645 3428 
Q 1925 3584 2291 3584 
Q 2894 3584 3203 3211 
Q 3513 2838 3513 2113 
z
" transform="scale(0.015625)"/>
      <path id="DejaVuSans-74" d="M 1172 4494 
L 1172 3500 
L 2356 3500 
L 2356 3053 
L 1172 3053 
L 1172 1153 
Q 1172 725 1289 603 
Q 1406 481 1766 481 
L 2356 481 
L 2356 0 
L 1766 0 
Q 1100 0 847 248 
Q 594 497 594 1153 
L 594 3053 
L 172 3053 
L 172 3500 
L 594 3500 
L 594 4494 
L 1172 4494 
z
" transform="scale(0.015625)"/>
      <path id="DejaVuSans-73" d="M 2834 3397 
L 2834 2853 
Q 2591 2978 2328 3040 
Q 2066 3103 1784 3103 
Q 1356 3103 1142 2972 
Q 928 2841 928 2578 
Q 928 2378 1081 2264 
Q 1234 2150 1697 2047 
L 1894 2003 
Q 2506 1872 2764 1633 
Q 3022 1394 3022 966 
Q 3022 478 2636 193 
Q 2250 -91 1575 -91 
Q 1294 -91 989 -36 
Q 684 19 347 128 
L 347 722 
Q 666 556 975 473 
Q 1284 391 1588 391 
Q 1994 391 2212 530 
Q 2431 669 2431 922 
Q 2431 1156 2273 1281 
Q 2116 1406 1581 1522 
L 1381 1569 
Q 847 1681 609 1914 
Q 372 2147 372 2553 
Q 372 3047 722 3315 
Q 1072 3584 1716 3584 
Q 2034 3584 2315 3537 
Q 2597 3491 2834 3397 
z
" transform="scale(0.015625)"/>
      <path id="DejaVuSans-3a" d="M 750 794 
L 1409 794 
L 1409 0 
L 750 0 
L 750 794 
z
M 750 3309 
L 1409 3309 
L 1409 2516 
L 750 2516 
L 750 3309 
z
" transform="scale(0.015625)"/>
      <path id="DejaVuSans-20" transform="scale(0.015625)"/>
      <path id="DejaVuSans-33" d="M 2597 2516 
Q 3050 2419 3304 2112 
Q 3559 1806 3559 1356 
Q 3559 666 3084 287 
Q 2609 -91 1734 -91 
Q 1441 -91 1130 -33 
Q 819 25 488 141 
L 488 750 
Q 750 597 1062 519 
Q 1375 441 1716 441 
Q 2309 441 2620 675 
Q 2931 909 2931 1356 
Q 2931 1769 2642 2001 
Q 2353 2234 1838 2234 
L 1294 2234 
L 1294 2753 
L 1863 2753 
Q 2328 2753 2575 2939 
Q 2822 3125 2822 3475 
Q 2822 3834 2567 4026 
Q 2313 4219 1838 4219 
Q 1578 4219 1281 4162 
Q 984 4106 628 3988 
L 628 4550 
Q 988 4650 1302 4700 
Q 1616 4750 1894 4750 
Q 2613 4750 3031 4423 
Q 3450 4097 3450 3541 
Q 3450 3153 3228 2886 
Q 3006 2619 2597 2516 
z
" transform="scale(0.015625)"/>
      <path id="DejaVuSans-30" d="M 2034 4250 
Q 1547 4250 1301 3770 
Q 1056 3291 1056 2328 
Q 1056 1369 1301 889 
Q 1547 409 2034 409 
Q 2525 409 2770 889 
Q 3016 1369 3016 2328 
Q 3016 3291 2770 3770 
Q 2525 4250 2034 4250 
z
M 2034 4750 
Q 2819 4750 3233 4129 
Q 3647 3509 3647 2328 
Q 3647 1150 3233 529 
Q 2819 -91 2034 -91 
Q 1250 -91 836 529 
Q 422 1150 422 2328 
Q 422 3509 836 4129 
Q 1250 4750 2034 4750 
z
" transform="scale(0.015625)"/>
      <path id="DejaVuSans-7c" d="M 1344 4891 
L 1344 -1509 
L 813 -1509 
L 813 4891 
L 1344 4891 
z
" transform="scale(0.015625)"/>
      <path id="DejaVuSans-70" d="M 1159 525 
L 1159 -1331 
L 581 -1331 
L 581 3500 
L 1159 3500 
L 1159 2969 
Q 1341 3281 1617 3432 
Q 1894 3584 2278 3584 
Q 2916 3584 3314 3078 
Q 3713 2572 3713 1747 
Q 3713 922 3314 415 
Q 2916 -91 2278 -91 
Q 1894 -91 1617 61 
Q 1341 213 1159 525 
z
M 3116 1747 
Q 3116 2381 2855 2742 
Q 2594 3103 2138 3103 
Q 1681 3103 1420 2742 
Q 1159 2381 1159 1747 
Q 1159 1113 1420 752 
Q 1681 391 2138 391 
Q 2594 391 2855 752 
Q 3116 1113 3116 1747 
z
" transform="scale(0.015625)"/>
      <path id="DejaVuSans-6f" d="M 1959 3097 
Q 1497 3097 1228 2736 
Q 959 2375 959 1747 
Q 959 1119 1226 758 
Q 1494 397 1959 397 
Q 2419 397 2687 759 
Q 2956 1122 2956 1747 
Q 2956 2369 2687 2733 
Q 2419 3097 1959 3097 
z
M 1959 3584 
Q 2709 3584 3137 3096 
Q 3566 2609 3566 1747 
Q 3566 888 3137 398 
Q 2709 -91 1959 -91 
Q 1206 -91 779 398 
Q 353 888 353 1747 
Q 353 2609 779 3096 
Q 1206 3584 1959 3584 
z
" transform="scale(0.015625)"/>
      <path id="DejaVuSans-69" d="M 603 3500 
L 1178 3500 
L 1178 0 
L 603 0 
L 603 3500 
z
M 603 4863 
L 1178 4863 
L 1178 4134 
L 603 4134 
L 603 4863 
z
" transform="scale(0.015625)"/>
      <path id="DejaVuSans-32" d="M 1228 531 
L 3431 531 
L 3431 0 
L 469 0 
L 469 531 
Q 828 903 1448 1529 
Q 2069 2156 2228 2338 
Q 2531 2678 2651 2914 
Q 2772 3150 2772 3378 
Q 2772 3750 2511 3984 
Q 2250 4219 1831 4219 
Q 1534 4219 1204 4116 
Q 875 4013 500 3803 
L 500 4441 
Q 881 4594 1212 4672 
Q 1544 4750 1819 4750 
Q 2544 4750 2975 4387 
Q 3406 4025 3406 3419 
Q 3406 3131 3298 2873 
Q 3191 2616 2906 2266 
Q 2828 2175 2409 1742 
Q 1991 1309 1228 531 
z
" transform="scale(0.015625)"/>
      <path id="DejaVuSans-31" d="M 794 531 
L 1825 531 
L 1825 4091 
L 703 3866 
L 703 4441 
L 1819 4666 
L 2450 4666 
L 2450 531 
L 3481 531 
L 3481 0 
L 794 0 
L 794 531 
z
" transform="scale(0.015625)"/>
     </defs>
     <use xlink:href="#DejaVuSans-65"/>
     <use xlink:href="#DejaVuSans-6c" x="61.523438"/>
     <use xlink:href="#DejaVuSans-65" x="89.306641"/>
     <use xlink:href="#DejaVuSans-6d" x="150.830078"/>
     <use xlink:href="#DejaVuSans-65" x="248.242188"/>
     <use xlink:href="#DejaVuSans-6e" x="309.765625"/>
     <use xlink:href="#DejaVuSans-74" x="373.144531"/>
     <use xlink:href="#DejaVuSans-73" x="412.353516"/>
     <use xlink:href="#DejaVuSans-3a" x="464.453125"/>
     <use xlink:href="#DejaVuSans-20" x="498.144531"/>
     <use xlink:href="#DejaVuSans-33" x="529.931641"/>
     <use xlink:href="#DejaVuSans-30" x="593.554688"/>
     <use xlink:href="#DejaVuSans-20" x="657.177734"/>
     <use xlink:href="#DejaVuSans-7c" x="688.964844"/>
     <use xlink:href="#DejaVuSans-20" x="722.65625"/>
     <use xlink:href="#DejaVuSans-70" x="754.443359"/>
     <use xlink:href="#DejaVuSans-6f" x="817.919922"/>
     <use xlink:href="#DejaVuSans-69" x="879.101562"/>
     <use xlink:href="#DejaVuSans-6e" x="906.884766"/>
     <use xlink:href="#DejaVuSans-74" x="970.263672"/>
     <use xlink:href="#DejaVuSans-73" x="1009.472656"/>
     <use xlink:href="#DejaVuSans-3a" x="1061.572266"/>
     <use xlink:href="#DejaVuSans-20" x="1095.263672"/>
     <use xlink:href="#DejaVuSans-32" x="1127.050781"/>
     <use xlink:href="#DejaVuSans-31" x="1190.673828"/>
    </g>
   </g>
  </g>
 </g>
 <defs>
  <clipPath id="p88c32bc8bb">
   <rect x="33.64" y="12.689091" width="667.64" height="667.64"/>
  </clipPath>
 </defs>
</svg>
